# xmcd
#
# Track frame offsets:
#	150
#	19892
#	35254
#	53044
#	74248
#	88662
#	108586
#	128511
#	146562
#	159962
#	175522
#	191615
#	208737
#	223287
#
# Disc length: 3202 seconds
#
# Revision: 0
# Processed by: cddbd v1.5.2PL0 Copyright (c) Steve Scherf et al.
# Submitted via: EasyCDDAExtractor 16.0.9.1
#
DISCID=cb0c800e
DTITLE=Abraham Ezequiel  - Echa las redes otra vez...
DYEAR=1900
DGENRE=
TTITLE0=Echa las redes
TTITLE1=Quiero adorarte
TTITLE2=Caminando al cielo
TTITLE3=No hay palabras
TTITLE4=Todo lo puedo
TTITLE5=Despierta iglesia
TTITLE6=Me aferro a ti
TTITLE7=Transformo mi vida
TTITLE8=Me has seducido
TTITLE9=Enviame a mi
TTITLE10=No pido mas
TTITLE11=Si tu conmigo estas
TTITLE12=Manda tu espiritu
TTITLE13=Soy libre
EXTD=
EXTT0=
EXTT1=
EXTT2=
EXTT3=
EXTT4=
EXTT5=
EXTT6=
EXTT7=
EXTT8=
EXTT9=
EXTT10=
EXTT11=
EXTT12=
EXTT13=
PLAYORDER=
